<svg width="27" height="27" viewBox="0 0 27 27" fill="none" xmlns="http://www.w3.org/2000/svg">
<path fill-rule="evenodd" clip-rule="evenodd" d="M13.5 27C6.04416 27 0 20.9558 0 13.5C0 6.04416 6.04416 0 13.5 0C20.9558 0 27 6.04416 27 13.5C27 20.9558 20.9558 27 13.5 27ZM13.6881 12.7423C14.7935 12.7423 20.1681 9.72 20.1681 9.72L20.1767 9.18C20.1767 8.58384 19.6929 8.1 19.0951 8.1H8.28108C7.68384 8.1 7.2 8.58384 7.2 9.18V9.66114C7.2 9.66114 12.6335 12.7423 13.6881 12.7423ZM7.20864 11.34C7.2081 11.34 12.6335 14.2273 13.6881 14.2273C14.8442 14.2273 20.1681 11.34 20.1681 11.34L20.1767 17.82C20.1767 18.4162 19.6929 18.9 19.0951 18.9H8.28108C7.68438 18.9 7.2 18.4162 7.2 17.82L7.20864 11.34Z" fill="white"/>
</svg>
