<svg width="27" height="27" viewBox="0 0 27 27" fill="none" xmlns="http://www.w3.org/2000/svg">
<path fill-rule="evenodd" clip-rule="evenodd" d="M13.5 0C6.04416 0 0 6.04416 0 13.5C0 20.9558 6.04416 27 13.5 27C20.9558 27 27 20.9558 27 13.5C27 6.04416 20.9558 0 13.5 0ZM13.124 11.4401L13.0957 10.973C13.0107 9.76224 13.7567 8.65638 14.9371 8.22739C15.3714 8.07485 16.108 8.05579 16.5896 8.18925C16.7784 8.24645 17.1373 8.43712 17.3922 8.60872L17.8549 8.92331L18.3649 8.76125C18.6481 8.67545 19.0259 8.53245 19.1958 8.43712C19.3564 8.35132 19.498 8.30365 19.498 8.33225C19.498 8.49432 19.1486 9.04725 18.8559 9.35231C18.4593 9.78131 18.5726 9.81944 19.3753 9.53344C19.8568 9.37138 19.8663 9.37138 19.7719 9.55251C19.7152 9.64784 19.4225 9.98151 19.1108 10.2866C18.582 10.8109 18.5537 10.8681 18.5537 11.3066C18.5537 11.9835 18.2327 13.3944 17.9116 14.1666C17.3167 15.6157 16.0419 17.1124 14.7671 17.8655C12.9729 18.9237 10.5838 19.1907 8.57249 18.571C7.90204 18.3613 6.75 17.8274 6.75 17.7321C6.75 17.7035 7.09939 17.6653 7.52432 17.6558C8.41196 17.6367 9.2996 17.3889 10.055 16.9503L10.565 16.6453L9.9795 16.4451C9.14851 16.1591 8.40252 15.5013 8.21366 14.8816C8.157 14.6814 8.17589 14.6719 8.70469 14.6719L9.25239 14.6623L8.78968 14.4431C8.24199 14.1666 7.74151 13.6995 7.49599 13.2228C7.31658 12.8796 7.08995 12.0121 7.15605 11.9454C7.17493 11.9168 7.37324 11.974 7.59987 12.0502C8.25143 12.2886 8.33642 12.2314 7.9587 11.831C7.25048 11.1064 7.03329 10.0292 7.37324 9.00911L7.53377 8.55152L8.157 9.17118C9.4318 10.42 10.9332 11.1636 12.6519 11.3829L13.124 11.4401Z" fill="white"/>
</svg>
