<svg width="27" height="27" viewBox="0 0 27 27" fill="none" xmlns="http://www.w3.org/2000/svg">
<path fill-rule="evenodd" clip-rule="evenodd" d="M13.5 0C6.04416 0 0 6.04416 0 13.5C0 20.9558 6.04416 27 13.5 27C20.9558 27 27 20.9558 27 13.5C27 6.04416 20.9558 0 13.5 0ZM6.48091 11.1813H9.5403V20.3735H6.48091V11.1813ZM9.7418 8.33777C9.72195 7.43648 9.07743 6.75 8.03083 6.75C6.98423 6.75 6.3 7.43648 6.3 8.33777C6.3 9.22039 6.96401 9.92663 7.99112 9.92663H8.01067C9.07743 9.92663 9.7418 9.22039 9.7418 8.33777ZM17.0511 10.9654C19.0644 10.9654 20.5737 12.2795 20.5737 15.103L20.5735 20.3735H17.5143V15.4557C17.5143 14.2204 17.0715 13.3775 15.964 13.3775C15.1188 13.3775 14.6154 13.9457 14.3943 14.4946C14.3134 14.6913 14.2935 14.9653 14.2935 15.2401V20.3737H11.2337C11.2337 20.3737 11.2741 12.0441 11.2337 11.1815H14.2935V12.4835C14.6996 11.8576 15.4268 10.9654 17.0511 10.9654Z" fill="white"/>
</svg>
